<svg width="22" height="25" viewBox="0 0 22 25" fill="none" xmlns="http://www.w3.org/2000/svg">
<path d="M18.0712 17.8213L12.7675 23.125C12.2987 23.5933 11.6632 23.8563 11.0006 23.8563C10.338 23.8563 9.70252 23.5933 9.23375 23.125L3.92875 17.8213C2.53027 16.4227 1.57792 14.6409 1.19211 12.7011C0.806296 10.7613 1.00436 8.75064 1.76125 6.92341C2.51814 5.09618 3.79987 3.53443 5.44435 2.43563C7.08883 1.33684 9.02221 0.750366 11 0.750366C12.9778 0.750366 14.9112 1.33684 16.5556 2.43563C18.2001 3.53443 19.4819 5.09618 20.2387 6.92341C20.9956 8.75064 21.1937 10.7613 20.8079 12.7011C20.4221 14.6409 19.4697 16.4227 18.0712 17.8213Z" stroke="white" stroke-width="1.25" stroke-linecap="round" stroke-linejoin="round"/>
</svg>
